<svg xmlns="http://www.w3.org/2000/svg" width="87.571" height="32" fill="none"><path d="m37.788 0 3.692 2.316L45.172 0l3.692 2.316L52.555 0v6.22H37.788z" fill="#ffc400"/><path d="M41.934 25.31h-4.145V8.293h4.145zm.414-8.508 5.334-8.509h4.873l-5.334 8.509 5.334 8.509h-4.873zm10.868-5.001h4.146V25.31h-4.146zm14.89 6.183c0-1.843-1.018-2.861-2.594-2.861-1.576 0-2.594 1.019-2.594 2.861v7.326h-4.146V11.801h4.146v1.794c.825-1.14 2.279-1.94 4.097-1.94 3.127 0 5.212 2.134 5.212 5.771v7.884h-4.121zm12.361-2.764c-1.552 0-2.957 1.164-2.957 3.322 0 2.158 1.406 3.371 2.957 3.371 1.576 0 2.958-1.188 2.958-3.346 0-2.158-1.382-3.346-2.958-3.346zm-1.212-3.613c1.988 0 3.442.897 4.17 2.11v-1.916h4.146v13.506c0 3.613-2.085 6.693-6.764 6.693-4.024 0-6.643-2.037-7.006-5.262h4.097c.267 1.018 1.285 1.673 2.715 1.673 1.576 0 2.812-.825 2.812-3.104v-1.916c-.751 1.188-2.182 2.134-4.17 2.134-3.321 0-5.964-2.716-5.964-6.984s2.642-6.935 5.964-6.935zM8.809 21.493c.379-.315.569-.771.569-1.37 0-.599-.198-1.067-.594-1.406-.396-.339-.941-.509-1.636-.509H4.144v3.757h3.053c.695 0 1.232-.157 1.612-.473zm-4.665-6.315h2.714c.679 0 1.2-.149 1.563-.448.363-.299.545-.74.545-1.322 0-.582-.182-1.026-.545-1.333-.363-.307-.885-.46-1.563-.46H4.144zm8.531 2.873c.598.768.897 1.645.897 2.63 0 1.422-.497 2.549-1.491 3.382-.994.833-2.379 1.247-4.156 1.247H0V8.293h7.658c1.729 0 3.082.397 4.059 1.188.977.791 1.466 1.866 1.466 3.224 0 1.002-.263 1.834-.787 2.497-.524.663-1.224 1.123-2.096 1.381a3.96 3.96 0 0 1 2.375 1.467zm10.937-.813c0-.711-.242-1.276-.727-1.696-.485-.42-1.09-.631-1.818-.631-.695 0-1.281.203-1.757.607-.476.404-.772.978-.885 1.721h5.186zm4.168 2.303h-9.379c.065.841.335 1.483.812 1.927.477.444 1.062.667 1.757.667 1.034 0 1.753-.436 2.157-1.309h4.411a6.06 6.06 0 0 1-1.224 2.4 6.119 6.119 0 0 1-2.218 1.673c-.889.404-1.882.607-2.981.607-1.325 0-2.505-.283-3.538-.849a6.04 6.04 0 0 1-2.424-2.424c-.582-1.051-.872-2.279-.872-3.685 0-1.406.287-2.634.86-3.685a5.95 5.95 0 0 1 2.411-2.424c1.034-.566 2.221-.848 3.563-.848 1.309 0 2.472.275 3.49.824a5.916 5.916 0 0 1 2.387 2.351c.574 1.018.86 2.206.86 3.564a10.56 10.56 0 0 1-.073 1.211zm8.681 2.255v3.515h-2.108c-1.502 0-2.674-.367-3.514-1.103-.84-.736-1.26-1.935-1.26-3.6v-5.382H27.93v-3.425h1.648V8.293h4.144v3.508h2.715v3.425h-2.715v5.43c0 .404.097.695.291.873.194.178.517.267.97.267z" fill="#001041" style="fill:#fff;fill-opacity:1"/></svg>